<svg width="174" height="84" viewBox="0 0 174 84" fill="none" xmlns="http://www.w3.org/2000/svg">
<g clip-path="url(#clip0_551_8641)">
<path d="M93.9639 19.1491C93.9523 20.6724 92.7035 21.8981 91.1801 21.8865C89.6529 21.871 88.4311 20.626 88.4427 19.1027C88.4582 17.5793 89.7032 16.3537 91.2265 16.3653C92.7499 16.3769 93.9755 17.6296 93.96 19.153L93.9639 19.1491Z" fill="#F78E1E"/>
<path d="M75.3165 20.4409L65.2292 8.08789L65.7975 10.6049L74.9956 23.2478L73.7854 42.7458L64.2858 31.1313L64.5603 33.3506L73.4684 45.1043L71.0596 82.9133L77.8567 82.9752L77.1839 42.9198L84.6692 31.9085L85.4308 29.2523L77.0525 40.8513L76.7664 23.561L83.9694 11.065L84.4411 8.26188L76.6465 20.3056L76.5576 13.9531L75.3397 17.9316L75.3165 20.4409Z" fill="#81BF46"/>
<path opacity="0.5" d="M80.9884 5.44018C80.9614 8.42114 78.5256 10.8105 75.5446 10.7835C72.5675 10.7564 70.1742 8.32061 70.2013 5.34352C70.2284 2.36643 72.6642 -0.0268371 75.6451 0.0002273C78.6261 0.0272917 81.0193 2.46309 80.9884 5.44018Z" fill="#F78E1E"/>
<path opacity="0.5" d="M57.3225 25.9167C57.2954 28.8938 54.8596 31.2871 51.8787 31.26C48.9016 31.2368 46.5083 28.7972 46.5354 25.8201C46.5624 22.8391 48.9982 20.4497 51.9753 20.4768C54.9524 20.5039 57.3457 22.9397 57.3186 25.9206L57.3225 25.9167Z" fill="#F78E1E"/>
<path opacity="0.15" d="M63.6672 35.196C63.644 38.1731 61.2043 40.5703 58.2272 40.5432C55.2501 40.5161 52.8569 38.0803 52.8839 35.0994C52.911 32.1223 55.3468 29.729 58.3239 29.7561C61.301 29.7832 63.6942 32.219 63.6672 35.196Z" fill="#F78E1E"/>
<path d="M69.9307 43.5465C69.9075 46.2684 67.6804 48.4529 64.9585 48.4297C62.2366 48.4065 60.0521 46.1795 60.0792 43.4576C60.1024 40.7357 62.3294 38.5512 65.0513 38.5744C67.7694 38.5976 69.9577 40.8246 69.9307 43.5465Z" fill="#F78E1E"/>
<path d="M56.9011 18.5124C56.8933 19.1078 56.41 19.5834 55.8185 19.5756C55.2269 19.5718 54.7514 19.0846 54.7591 18.4931C54.7668 17.9015 55.2463 17.426 55.8417 17.4337C56.4332 17.4337 56.9088 17.9208 56.9049 18.5124H56.9011Z" fill="#F78E1E"/>
<path d="M70.1201 9.59627C70.1124 10.1878 69.6291 10.6634 69.0375 10.6595C68.446 10.6518 67.9704 10.1724 67.9782 9.57694C67.982 8.98539 68.4653 8.50983 69.0607 8.5137C69.6523 8.52143 70.1278 9.00085 70.1201 9.59627Z" fill="#F78E1E"/>
<path d="M87.0122 17.0162C87.0083 17.6077 86.525 18.0833 85.9296 18.0794C85.3381 18.0756 84.8625 17.5923 84.8664 16.9969C84.8702 16.4053 85.3574 15.9298 85.9489 15.9336C86.5405 15.9413 87.016 16.4246 87.0122 17.0162Z" fill="#F78E1E"/>
<path d="M80.6288 11.8307C80.6288 12.4222 80.1417 12.8978 79.5501 12.8939C78.9586 12.8862 78.483 12.4068 78.4869 11.8114C78.4907 11.2198 78.9779 10.7481 79.5694 10.752C80.161 10.7558 80.6366 11.2391 80.6288 11.8307Z" fill="#F78E1E"/>
<path d="M100.467 12.9439C100.459 13.5354 99.9799 14.011 99.3884 14.0033C98.7968 13.9994 98.3213 13.5161 98.3251 12.9207C98.3329 12.3291 98.8161 11.8536 99.4077 11.8574C99.9993 11.8652 100.475 12.3485 100.467 12.94V12.9439Z" fill="#F78E1E"/>
<path d="M79.9329 26.9206C79.929 27.5122 79.4457 27.9877 78.8542 27.9838C78.2626 27.98 77.7871 27.4967 77.7909 26.9013C77.7987 26.3097 78.282 25.8342 78.8735 25.8419C79.4651 25.8458 79.9406 26.3291 79.9329 26.9206Z" fill="#F78E1E"/>
<path d="M72.6023 23.8756C72.5984 24.4671 72.1151 24.9427 71.5236 24.9349C70.932 24.9349 70.4565 24.4439 70.4604 23.8562C70.4642 23.2647 70.9475 22.7891 71.5429 22.793C72.1345 22.7969 72.61 23.284 72.6023 23.8756Z" fill="#F78E1E"/>
<path d="M73.0044 35.8532C72.9967 36.9048 72.1306 37.7554 71.0789 37.7438C70.0234 37.7361 69.1767 36.87 69.1844 35.8184C69.196 34.7629 70.0582 33.9161 71.1137 33.9239C72.1693 33.9316 73.016 34.7938 73.0044 35.8532Z" fill="#F78E1E"/>
<path d="M83.5827 30.4469C83.575 31.5025 82.7089 32.3492 81.6573 32.3376C80.6018 32.3299 79.755 31.4677 79.7628 30.4121C79.7744 29.3566 80.6366 28.5099 81.6882 28.5176C82.7437 28.5292 83.5905 29.3914 83.5789 30.4469H83.5827Z" fill="#F78E1E"/>
<path d="M96.9487 26.0934C96.9371 27.1489 96.0749 27.9957 95.0233 27.9879C93.9677 27.9763 93.121 27.1141 93.1287 26.0586C93.1365 25.007 93.9987 24.1564 95.0581 24.1641C96.1136 24.1757 96.9564 25.0379 96.9487 26.0896V26.0934Z" fill="#F78E1E"/>
<path d="M88.118 13.4392C88.1102 14.4908 87.2442 15.3414 86.1925 15.3298C85.137 15.3182 84.2903 14.456 84.298 13.4005C84.3057 12.345 85.1718 11.4983 86.2273 11.5099C87.2828 11.5215 88.1296 12.3837 88.1218 13.4392H88.118Z" fill="#F78E1E"/>
<path opacity="0.5" d="M63.9301 19.5563C63.9185 20.608 63.0563 21.4586 62.0008 21.447C60.9453 21.4392 60.0985 20.577 60.1063 19.5215C60.1179 18.466 60.9801 17.6193 62.0356 17.627C63.0911 17.6347 63.9378 18.4969 63.9262 19.5563H63.9301Z" fill="#F78E1E"/>
<path d="M74.6051 13.6902C74.5935 14.6955 73.7738 15.4997 72.7724 15.492C71.771 15.4842 70.963 14.6607 70.9746 13.6593C70.9823 12.6579 71.802 11.8499 72.8072 11.8615C73.8125 11.8692 74.6167 12.6888 74.6089 13.6941L74.6051 13.6902Z" fill="#F78E1E"/>
<path d="M55.1999 16.0765C55.1805 17.8241 53.7539 19.2314 52.0024 19.216C50.2548 19.2005 48.8475 17.7661 48.8629 16.0185C48.8784 14.2709 50.3089 12.8636 52.0604 12.879C53.808 12.8945 55.2153 14.325 55.1999 16.0765Z" fill="#F78E1E"/>
<path d="M91.8335 24.8871C91.8181 26.5341 90.4726 27.8564 88.8255 27.841C87.1784 27.8255 85.8561 26.4761 85.8716 24.8329C85.8871 23.1859 87.2326 21.8636 88.8796 21.879C90.5267 21.8945 91.849 23.24 91.8335 24.8871Z" fill="#F78E1E"/>
<path d="M94.8647 19.3246C94.8493 20.9716 93.5038 22.29 91.8567 22.2784C90.2097 22.263 88.8874 20.9175 88.9028 19.2704C88.9183 17.6234 90.2676 16.3011 91.9108 16.3165C93.5579 16.332 94.8802 17.6775 94.8647 19.3246Z" fill="#F78E1E"/>
<path opacity="0.5" d="M85.7054 22.5023C85.686 24.4548 84.0854 26.0284 82.1329 26.009C80.1765 25.9936 78.6067 24.3929 78.6261 22.4365C78.6415 20.4802 80.2422 18.9104 82.1947 18.9259C84.1511 18.9414 85.7208 20.542 85.7054 22.5023Z" fill="#F78E1E"/>
<path d="M65.7357 25.9594C65.7163 28.0163 64.0306 29.6711 61.9737 29.6518C59.9168 29.6324 58.262 27.9506 58.2814 25.8898C58.3007 23.829 59.9826 22.1781 62.0394 22.1974C64.0963 22.2168 65.7511 23.8986 65.7357 25.9594Z" fill="#F78E1E"/>
<path opacity="0.5" d="M73.7158 29.478C73.6965 31.7939 71.802 33.6536 69.486 33.6343C67.1701 33.615 65.3104 31.7205 65.3336 29.4045C65.3529 27.0886 67.2474 25.2289 69.5633 25.2482C71.8793 25.2675 73.739 27.162 73.7197 29.478H73.7158Z" fill="#F78E1E"/>
<path d="M65.0165 12.439C64.9933 15.0642 62.8475 17.1714 60.2223 17.1482C57.597 17.125 55.486 14.9753 55.513 12.35C55.5362 9.72478 57.6821 7.61762 60.3073 7.64081C62.9326 7.66401 65.0397 9.8137 65.0165 12.439Z" fill="#F78E1E"/>
<path opacity="0.15" d="M95.9048 7.0327C95.8816 9.65796 93.7358 11.7651 91.1105 11.7419C88.4891 11.7187 86.3781 9.5729 86.4013 6.94378C86.4245 4.31853 88.5742 2.21137 91.1956 2.23456C93.8208 2.25776 95.928 4.40745 95.9048 7.02884V7.0327Z" fill="#F78E1E"/>
<path d="M104.554 19.6909C104.531 22.3162 102.385 24.4233 99.7595 24.4001C97.1382 24.3731 95.0271 22.2272 95.0503 19.602C95.0735 16.9767 97.2232 14.8696 99.8446 14.8928C102.47 14.916 104.581 17.0657 104.554 19.6909Z" fill="#F78E1E"/>
<path opacity="0.5" d="M106.974 30.0562C106.951 32.6814 104.805 34.7886 102.18 34.7654C99.5546 34.7422 97.4475 32.5925 97.4706 29.9711C97.4938 27.3459 99.6435 25.2387 102.265 25.2619C104.89 25.2851 106.997 27.4309 106.974 30.06V30.0562Z" fill="#F78E1E"/>
<path opacity="0.5" d="M89.2817 44.7251C89.2547 47.4007 87.0663 49.5503 84.3908 49.5271C81.7153 49.504 79.5656 47.3156 79.5888 44.6401C79.612 41.9646 81.8003 39.8149 84.4759 39.8381C87.1514 39.8613 89.3011 42.0535 89.2779 44.729L89.2817 44.7251Z" fill="#F78E1E"/>
<path d="M95.089 41.3618C95.0735 43.0088 93.728 44.3311 92.0771 44.3195C90.43 44.3041 89.1077 42.9586 89.1232 41.3115C89.1387 39.6645 90.4842 38.3383 92.1312 38.3576C93.7783 38.3731 95.1006 39.7186 95.0851 41.3656L95.089 41.3618Z" fill="#F78E1E"/>
<path opacity="0.3" d="M96.0633 32.86C96.0401 35.5355 93.8517 37.6852 91.1762 37.662C88.5007 37.6388 86.351 35.4504 86.3742 32.771C86.3974 30.0955 88.5858 27.9458 91.2613 27.9729C93.9368 27.9961 96.0865 30.1845 96.0633 32.86Z" fill="#F78E1E"/>
<path d="M100.448 36.0506C100.436 37.3149 99.4038 38.324 98.1434 38.3124C96.883 38.3008 95.87 37.2723 95.8816 36.0119C95.8932 34.7515 96.9255 33.7385 98.1859 33.7501C99.4464 33.7617 100.459 34.7901 100.448 36.0506Z" fill="#F78E1E"/>
<path opacity="0.3" d="M97.4861 13.1951C97.4745 14.4555 96.4422 15.4685 95.1818 15.4569C93.9213 15.4453 92.9084 14.413 92.92 13.1525C92.9316 11.8882 93.9639 10.8791 95.2243 10.8907C96.4847 10.9023 97.4977 11.9346 97.49 13.1951H97.4861Z" fill="#F78E1E"/>
<path d="M101.345 8.66382C101.333 9.92425 100.301 10.9372 99.0404 10.9256C97.78 10.914 96.767 9.88172 96.7747 8.62129C96.7863 7.36086 97.8186 6.34787 99.0791 6.35947C100.34 6.37107 101.352 7.40339 101.341 8.66382H101.345Z" fill="#F78E1E"/>
<path opacity="0.3" d="M68.8983 21.2302C68.8867 22.4907 67.8583 23.5036 66.594 23.492C65.3336 23.4804 64.3206 22.4481 64.3361 21.1877C64.3438 19.9273 65.3761 18.9143 66.6404 18.9259C67.9008 18.9375 68.9138 19.9698 68.9022 21.2302H68.8983Z" fill="#F78E1E"/>
<path d="M8.81914 81.2016C8.60263 81.6424 8.31265 82.0213 7.94535 82.3383C7.59351 82.6399 7.19141 82.868 6.73518 83.0188C6.27895 83.1696 5.77246 83.2469 5.2157 83.2469C4.4811 83.2469 3.80835 83.1425 3.1936 82.9376C2.57885 82.7327 2.01823 82.4118 1.50788 81.9826C1.01298 81.5496 0.637948 81.074 0.382769 80.5482C0.12759 80.0224 0 79.4463 0 78.8238C0 78.0737 0.139189 77.3778 0.417566 76.7282C0.695943 76.0826 1.11351 75.4871 1.67413 74.9458C2.23088 74.3891 2.83403 73.9715 3.47971 73.7009C4.12539 73.4302 4.81747 73.2949 5.55208 73.2949C5.99671 73.2949 6.41427 73.3452 6.79704 73.4496C7.17981 73.554 7.52392 73.7164 7.82549 73.9406C8.1464 74.1494 8.38225 74.3852 8.54463 74.6481C8.70315 74.9111 8.78435 75.1856 8.78435 75.4717C8.78435 75.6302 8.75728 75.781 8.69929 75.9163C8.64516 76.0516 8.56783 76.1676 8.47117 76.2643C8.35905 76.3764 8.23919 76.4576 8.1116 76.504C7.98401 76.5504 7.84096 76.5736 7.68244 76.5736C7.55485 76.5736 7.43112 76.5465 7.31127 76.4924C7.19141 76.4383 7.08315 76.3532 6.98649 76.2411C6.87437 76.129 6.79318 76.0091 6.74678 75.8815C6.70038 75.7539 6.67332 75.6186 6.67332 75.4755V75.3093C6.67332 75.3093 6.69652 75.2784 6.69652 75.2629C6.69652 75.2165 6.70812 75.1624 6.73131 75.1082C6.75451 75.0502 6.77384 74.9922 6.78931 74.9265C6.82024 74.8801 6.85117 74.8299 6.87437 74.7835C6.89757 74.7371 6.92463 74.6984 6.95943 74.6636C6.97489 74.6481 6.99036 74.6327 7.00583 74.6172C7.02129 74.6017 7.03676 74.5863 7.05222 74.5708C7.06769 74.5708 7.07929 74.5708 7.08702 74.5592C7.09475 74.5476 7.10635 74.5399 7.12182 74.5244C7.12182 74.509 7.12182 74.4974 7.13341 74.4896C7.14115 74.4819 7.15275 74.4703 7.16821 74.4548C7.18368 74.4239 7.19528 74.3968 7.20301 74.3698C7.21074 74.3466 7.21461 74.3195 7.21461 74.2847C7.21461 74.188 7.17594 74.103 7.09475 74.0218C7.01356 73.9406 6.8937 73.8787 6.73518 73.8285C6.57666 73.7821 6.37561 73.7395 6.1359 73.7086C5.89618 73.6777 5.61781 73.6622 5.2969 73.6622C4.70535 73.6622 4.20272 73.7395 3.78902 73.8903C3.37532 74.0411 3.05442 74.2692 2.83403 74.5708C2.62525 74.8724 2.46673 75.3093 2.35461 75.8738C2.24248 76.4421 2.18835 77.1381 2.18835 77.9693V78.9978C2.18835 79.7479 2.23862 80.3781 2.34301 80.8884C2.4474 81.3988 2.60205 81.797 2.81084 82.0831C3.03508 82.3692 3.32893 82.5858 3.69623 82.7288C4.06353 82.8719 4.50816 82.9453 5.03399 82.9453C5.55981 82.9453 6.03537 82.8796 6.4568 82.7404C6.87824 82.6051 7.25714 82.4002 7.59351 82.1295C7.92988 81.8589 8.20439 81.5225 8.42091 81.1243C8.63742 80.726 8.79208 80.2698 8.88874 79.7595L9.22511 79.7131C9.16325 80.2737 9.02019 80.7724 8.80754 81.2093L8.81914 81.2016Z" fill="#F78E1E"/>
<path d="M17.0158 75.2774C17.0158 74.9565 16.9771 74.6819 16.8959 74.45C16.8147 74.218 16.6872 74.0479 16.5132 73.9357C16.3546 73.8081 16.1188 73.7115 15.8056 73.6496C15.4925 73.5839 15.1058 73.553 14.6457 73.553C14.263 73.553 13.9188 73.58 13.6173 73.638C13.3157 73.6922 13.0489 73.7772 12.8285 73.8893C12.5888 74.0015 12.4148 74.1213 12.3027 74.2489C12.1906 74.3765 12.1365 74.5273 12.1365 74.7051C12.1365 74.7361 12.1403 74.7631 12.1481 74.7902C12.1558 74.8134 12.1674 74.8405 12.1829 74.8753C12.1983 74.8907 12.2177 74.9101 12.2409 74.9371C12.2641 74.9603 12.2834 74.9874 12.3027 75.0222C12.3182 75.0376 12.3336 75.0531 12.3491 75.0686C12.3646 75.084 12.38 75.0995 12.3955 75.115C12.411 75.1304 12.4303 75.1459 12.4535 75.1614C12.4767 75.1768 12.496 75.1846 12.5154 75.1846C12.5308 75.2 12.5463 75.2232 12.5618 75.258C12.5772 75.289 12.6004 75.316 12.6352 75.3276C12.6507 75.3586 12.67 75.3895 12.6971 75.4127C12.7203 75.4359 12.7396 75.4629 12.7551 75.4977C12.786 75.5441 12.8169 75.606 12.8401 75.6756C12.8633 75.7491 12.8749 75.8225 12.8749 75.9037C12.8749 76.0622 12.8517 76.2014 12.8015 76.3213C12.7551 76.4411 12.6816 76.5494 12.585 76.646C12.4883 76.7427 12.38 76.8123 12.2602 76.8626C12.1403 76.909 12.0089 76.936 11.8658 76.936C11.7073 76.936 11.5642 76.9128 11.4328 76.8626C11.3052 76.8162 11.1931 76.735 11.0964 76.6228C10.9843 76.5107 10.9031 76.3831 10.8567 76.2401C10.8103 76.097 10.7832 75.9462 10.7832 75.7838C10.7832 75.432 10.876 75.1072 11.0578 74.8018C11.2395 74.5002 11.5256 74.218 11.9083 73.9628C12.2911 73.7076 12.7048 73.5182 13.1533 73.3867C13.6018 73.2591 14.0851 73.1973 14.6148 73.1973C14.9009 73.1973 15.1831 73.2127 15.4654 73.2437C15.7438 73.2746 16.0183 73.3326 16.2928 73.4099C16.5634 73.4756 16.8263 73.5607 17.0815 73.6728C17.3367 73.7849 17.5764 73.9125 17.8007 74.0556C17.8316 74.0711 17.8703 74.0904 17.9089 74.1136C17.9476 74.1368 17.9862 74.1639 18.0172 74.1986C18.0326 74.2141 18.0481 74.2257 18.0636 74.2334C18.079 74.2412 18.0945 74.245 18.11 74.245C18.1254 74.2605 18.1409 74.2721 18.1564 74.2798C18.1718 74.2876 18.1873 74.2992 18.2028 74.3146C18.3304 74.4268 18.4425 74.5389 18.5391 74.651C18.6358 74.7631 18.7054 74.883 18.7557 75.0106C18.802 75.1227 18.8407 75.2619 18.8639 75.4281C18.8871 75.5944 18.8987 75.7761 18.8987 75.9656V80.033L18.9451 81.3746C18.9451 81.6298 18.9567 81.8386 18.9799 81.9971C19.0031 82.1556 19.0418 82.2754 19.0882 82.3566C19.1346 82.4378 19.2041 82.4958 19.2931 82.5345C19.382 82.5732 19.4787 82.5925 19.5908 82.5925C19.6372 82.5925 19.6874 82.5925 19.7338 82.5809C19.7802 82.5732 19.8305 82.5616 19.8769 82.5461C19.9233 82.5306 19.9736 82.5113 20.0199 82.4881C20.0663 82.4649 20.1166 82.4301 20.163 82.3798C20.1939 82.3489 20.2365 82.3102 20.2829 82.2716C20.3293 82.2329 20.3795 82.1788 20.4259 82.1169C20.4723 82.0705 20.5226 82.0087 20.569 81.9391C20.6154 81.8695 20.6656 81.7922 20.712 81.711L21.0213 81.8308C20.9092 82.0551 20.7855 82.2445 20.6502 82.4069C20.5148 82.5654 20.3602 82.693 20.1823 82.7897C20.0238 82.8863 19.8498 82.9559 19.6681 83.0062C19.4864 83.0526 19.2892 83.0797 19.0804 83.0797C18.7943 83.0797 18.5353 83.0526 18.3033 82.9946C18.0713 82.9405 17.8703 82.8554 17.6924 82.7433C17.5339 82.6157 17.3986 82.461 17.2864 82.2755C17.1743 82.0937 17.1009 81.8734 17.0699 81.6182C16.9114 81.8734 16.7181 82.0976 16.4938 82.2871C16.2696 82.4804 15.9989 82.6389 15.6819 82.7665C15.3803 82.8786 15.0478 82.9714 14.6883 83.041C14.3287 83.1144 13.9498 83.1492 13.5515 83.1492C13.0103 83.1492 12.5231 83.1029 12.0901 83.0062C11.6609 82.9095 11.2859 82.7665 10.965 82.577C10.6441 82.3682 10.4082 82.1208 10.2458 81.8347C10.0834 81.5486 10.0061 81.2277 10.0061 80.8758C10.0061 80.4119 10.1105 80.0059 10.3154 79.6541C10.5242 79.3022 10.8335 79.0084 11.2472 78.7687C11.6609 78.5444 12.0978 78.355 12.5502 78.1926C13.0064 78.0341 13.4781 77.9142 13.973 77.833C14.2436 77.7866 14.5181 77.7441 14.8004 77.7132C15.0788 77.6822 15.3455 77.659 15.6007 77.6436C15.8714 77.6281 16.1227 77.6165 16.3546 77.6088C16.5866 77.601 16.7954 77.5972 16.9887 77.5972V75.2774H17.0158ZM16.8495 77.9103C16.3701 77.9413 15.9255 77.9761 15.5079 78.007C15.0942 78.0379 14.7037 78.0959 14.3364 78.1733C13.9846 78.2351 13.683 78.3124 13.4278 78.4014C13.1726 78.4903 12.9639 78.5908 12.8053 78.6991C12.6932 78.7803 12.5927 78.8769 12.5076 78.9852C12.4187 79.0973 12.353 79.2249 12.3027 79.368C12.2563 79.511 12.2177 79.6734 12.1945 79.859C12.1713 80.0446 12.1597 80.2456 12.1597 80.4699C12.1597 80.8681 12.1945 81.2083 12.2679 81.4867C12.3414 81.7651 12.4496 81.9932 12.5927 82.1672C12.7357 82.3257 12.9329 82.4494 13.1804 82.5384C13.4278 82.6273 13.7255 82.6698 14.0774 82.6698C14.4292 82.6698 14.7308 82.635 15.0362 82.5616C15.3378 82.4881 15.62 82.3837 15.8752 82.2368C16.1459 82.0937 16.3778 81.9236 16.5712 81.7226C16.7606 81.5215 16.9153 81.2973 17.0274 81.0421V77.9065H16.8611L16.8495 77.9103Z" fill="#F78E1E"/>
<path d="M25.8465 74.9073C26.0283 74.5787 26.2487 74.2964 26.5038 74.0567C26.7745 73.817 27.0567 73.6353 27.3544 73.5077C27.6483 73.3801 27.973 73.3144 28.3249 73.3144C28.5646 73.3144 28.7811 73.3414 28.9706 73.3994C29.1639 73.4536 29.3301 73.5464 29.4732 73.6739C29.6162 73.7861 29.7284 73.9253 29.8096 74.0915C29.8869 74.2578 29.9294 74.4472 29.9294 74.6521C29.9294 74.8106 29.9062 74.9576 29.8598 75.0968C29.8134 75.2321 29.74 75.3481 29.6433 75.4447C29.5466 75.5414 29.4384 75.611 29.3185 75.6612C29.1987 75.7076 29.0595 75.7347 28.901 75.7347C28.7579 75.7347 28.6303 75.7115 28.5182 75.6612C28.4061 75.6148 28.3017 75.5414 28.205 75.4447C28.1084 75.3481 28.0388 75.2359 27.9885 75.1084C27.9421 74.9808 27.915 74.8377 27.915 74.6792C27.915 74.598 27.9266 74.5168 27.9498 74.4279C27.973 74.3428 28.0117 74.2578 28.0581 74.1766C28.1045 74.0954 28.1664 74.0219 28.236 73.9485C28.3094 73.875 28.3829 73.817 28.4641 73.7667L28.1045 73.6701C28.1045 73.6701 28.0736 73.6933 28.0581 73.6933H28.0117C27.946 73.6933 27.888 73.6933 27.83 73.7049C27.7759 73.7126 27.7217 73.7242 27.6753 73.7397C27.6135 73.7551 27.5516 73.7745 27.4975 73.7977C27.4434 73.8209 27.3892 73.8479 27.3428 73.8827C27.1998 73.9794 27.0567 74.0915 26.9098 74.2191C26.7667 74.3467 26.6237 74.4975 26.4806 74.6753C26.3376 74.8338 26.21 75.0194 26.0979 75.2243C25.9857 75.4331 25.8891 75.6458 25.8118 75.87C25.7808 75.9319 25.7538 76.0015 25.7267 76.0749C25.7035 76.1484 25.6764 76.2141 25.6416 76.2799C25.6262 76.3456 25.6107 76.4036 25.5952 76.4577C25.5798 76.5157 25.5643 76.566 25.5488 76.6124C25.5179 76.7245 25.487 76.8482 25.4638 76.9835C25.4406 77.1189 25.429 77.2503 25.429 77.3779C25.4135 77.521 25.4058 77.6833 25.4058 77.8689V82.524H27.4897V82.93H21.6245V82.524H23.4687V74.076H21.6245V73.6701H23.9946C24.1686 73.701 24.3271 73.7087 24.4624 73.6933C24.5977 73.6778 24.7214 73.6469 24.8336 73.5966C24.9302 73.5502 25.0269 73.4845 25.1197 73.4033C25.2163 73.3221 25.313 73.2293 25.4058 73.1172V75.9899C25.5179 75.5916 25.6648 75.2282 25.8504 74.8996L25.8465 74.9073Z" fill="#F78E1E"/>
<path d="M39.8427 79.7507C39.7151 80.3074 39.518 80.7985 39.255 81.2238C38.9921 81.6452 38.6596 82.0164 38.2614 82.3373C37.8632 82.6389 37.4263 82.867 36.9584 83.0178C36.4867 83.1685 35.9725 83.2459 35.4158 83.2459C34.7314 83.2459 34.0973 83.1299 33.5135 82.8979C32.9297 82.6659 32.3923 82.3102 31.8974 81.8347C31.4025 81.3552 31.0313 80.8294 30.7839 80.2533C30.5364 79.6811 30.4127 79.0586 30.4127 78.3859C30.4127 77.7131 30.5326 77.079 30.7723 76.472C31.012 75.865 31.3716 75.3005 31.8471 74.7708C32.3265 74.245 32.8408 73.8506 33.3898 73.5877C33.9388 73.3248 34.5265 73.1934 35.149 73.1934C35.5627 73.1934 35.9686 73.2552 36.3707 73.3828C36.769 73.5104 37.1517 73.7037 37.5191 73.9589C37.8864 74.2141 38.215 74.5118 38.5011 74.8559C38.7872 75.2 39.0347 75.5866 39.2434 76.0158V76.0622C39.2434 76.0622 39.2434 76.0893 39.255 76.097C39.2628 76.1047 39.2744 76.1086 39.2898 76.1086C39.3362 76.2207 39.3826 76.3367 39.4213 76.4566C39.46 76.5764 39.4986 76.6847 39.5296 76.7813C39.5605 76.8935 39.5875 76.9862 39.6146 77.0558C39.6378 77.1293 39.6494 77.1873 39.6494 77.2337C39.6494 77.2492 39.6455 77.2685 39.6378 77.2917C39.6301 77.3149 39.6107 77.3381 39.576 77.3497C39.5605 77.3651 39.5334 77.3729 39.4909 77.3729H39.3594L32.6359 77.3265V77.5894C32.6204 77.6358 32.6127 77.6822 32.6127 77.7209V78.4748C32.5972 78.5212 32.5895 78.5676 32.5895 78.6062V79.1437C32.5895 79.654 32.6243 80.1335 32.6977 80.5781C32.7712 81.0227 32.8872 81.4326 33.0457 81.7999C33.1887 82.1672 33.4517 82.4417 33.8344 82.6234C34.2172 82.8051 34.7198 82.8979 35.3423 82.8979C35.8836 82.8979 36.3707 82.8283 36.7999 82.693C37.2291 82.5577 37.6118 82.345 37.9482 82.0589C38.2846 81.7728 38.5784 81.4325 38.8336 81.042C39.0888 80.6515 39.2976 80.2069 39.4561 79.7159V79.6695L39.8389 79.7391L39.8427 79.7507ZM36.9932 76.9283C37.0744 76.9592 37.1363 76.9746 37.1827 76.9746C37.2291 76.9746 37.2639 76.9669 37.2793 76.9515C37.3103 76.936 37.3296 76.9128 37.3412 76.878C37.3489 76.8471 37.3528 76.7968 37.3528 76.7349C37.3528 76.3367 37.3219 75.9539 37.2561 75.5866C37.1904 75.2193 37.0976 74.8675 36.97 74.535C36.8424 74.1986 36.6221 73.9473 36.3128 73.781C36.0034 73.6148 35.5975 73.5297 35.1065 73.5297C34.5652 73.5297 34.1205 73.6187 33.7803 73.7926C33.4362 73.9666 33.2003 74.2218 33.0728 74.5582C32.9606 74.91 32.8678 75.2851 32.7982 75.6833C32.7248 76.0815 32.6745 76.5146 32.6436 76.9746V76.9283H37.001H36.9932Z" fill="#F78E1E"/>
<path d="M50.3747 79.7507C50.2471 80.3074 50.0499 80.7985 49.787 81.2238C49.5241 81.6452 49.1916 82.0164 48.7933 82.3373C48.3951 82.6389 47.9582 82.867 47.4904 83.0178C47.0187 83.1685 46.5044 83.2459 45.9477 83.2459C45.2634 83.2459 44.6293 83.1299 44.0455 82.8979C43.4616 82.6659 42.9242 82.3102 42.4293 81.8347C41.9344 81.3552 41.5633 80.8294 41.3158 80.2533C41.0684 79.6811 40.9446 79.0586 40.9446 78.3859C40.9446 77.7131 41.0645 77.079 41.3042 76.472C41.5439 75.865 41.9035 75.3005 42.3791 74.7708C42.8585 74.245 43.3727 73.8506 43.9217 73.5877C44.4708 73.3248 45.0584 73.1934 45.6809 73.1934C46.0946 73.1934 46.5006 73.2552 46.9027 73.3828C47.3009 73.5104 47.6837 73.7037 48.051 73.9589C48.4183 74.2141 48.7469 74.5118 49.033 74.8559C49.3192 75.2 49.5666 75.5866 49.7754 76.0158V76.0622C49.7754 76.0622 49.7754 76.0893 49.787 76.097C49.7947 76.1047 49.8063 76.1086 49.8218 76.1086C49.8682 76.2207 49.9146 76.3367 49.9532 76.4566C49.9919 76.5764 50.0306 76.6847 50.0615 76.7813C50.0924 76.8935 50.1195 76.9862 50.1466 77.0558C50.1697 77.1293 50.1813 77.1873 50.1813 77.2337C50.1813 77.2492 50.1775 77.2685 50.1697 77.2917C50.162 77.3149 50.1427 77.3381 50.1079 77.3497C50.0924 77.3651 50.0654 77.3729 50.0228 77.3729H49.8914L43.1678 77.3265V77.5894C43.1523 77.6358 43.1446 77.6822 43.1446 77.7209V78.4748C43.1291 78.5212 43.1214 78.5676 43.1214 78.6062V79.1437C43.1214 79.654 43.1562 80.1335 43.2297 80.5781C43.3031 81.0227 43.4152 81.4326 43.5776 81.7999C43.7207 82.1672 43.9836 82.4417 44.3664 82.6234C44.7491 82.8051 45.2518 82.8979 45.8742 82.8979C46.4155 82.8979 46.9027 82.8283 47.3318 82.693C47.761 82.5577 48.1438 82.345 48.4802 82.0589C48.8165 81.7728 49.1104 81.4325 49.3655 81.042C49.6207 80.6515 49.8295 80.2069 49.988 79.7159V79.6695L50.3708 79.7391L50.3747 79.7507ZM47.5252 76.9283C47.6064 76.9592 47.6682 76.9746 47.7146 76.9746C47.761 76.9746 47.7958 76.9669 47.8113 76.9515C47.8422 76.936 47.8615 76.9128 47.8731 76.878C47.8809 76.8471 47.8847 76.7968 47.8847 76.7349C47.8847 76.3367 47.8538 75.9539 47.7881 75.5866C47.7224 75.2193 47.6296 74.8675 47.502 74.535C47.3744 74.1986 47.154 73.9473 46.8447 73.781C46.5354 73.6148 46.1294 73.5297 45.6384 73.5297C45.0971 73.5297 44.6525 73.6187 44.3122 73.7926C43.9681 73.9666 43.7323 74.2218 43.6047 74.5582C43.4926 74.91 43.3998 75.2851 43.3302 75.6833C43.2567 76.0815 43.2065 76.5146 43.1755 76.9746V76.9283H47.5329H47.5252Z" fill="#F78E1E"/>
<path d="M55.3854 74.9073C55.5672 74.5787 55.7875 74.2964 56.0427 74.0567C56.3134 73.817 56.5956 73.6353 56.8933 73.5077C57.1872 73.3801 57.5119 73.3144 57.8638 73.3144C58.1035 73.3144 58.32 73.3414 58.5095 73.3994C58.7028 73.4536 58.869 73.5464 59.0121 73.6739C59.1551 73.7861 59.2673 73.9253 59.3485 74.0915C59.4296 74.2578 59.4683 74.4472 59.4683 74.6521C59.4683 74.8106 59.4451 74.9576 59.3987 75.0968C59.3523 75.2321 59.2789 75.3481 59.1822 75.4447C59.0855 75.5414 58.9773 75.611 58.8574 75.6612C58.7376 75.7076 58.5984 75.7347 58.4399 75.7347C58.2968 75.7347 58.1692 75.7115 58.0571 75.6612C57.945 75.6148 57.8406 75.5414 57.7439 75.4447C57.6473 75.3481 57.5777 75.2359 57.5274 75.1084C57.481 74.9808 57.4539 74.8377 57.4539 74.6792C57.4539 74.598 57.4655 74.5168 57.4887 74.4279C57.5119 74.3428 57.5506 74.2578 57.597 74.1766C57.6434 74.0954 57.7052 74.0219 57.7748 73.9485C57.8483 73.875 57.9218 73.817 58.003 73.7667L57.6434 73.6701C57.6434 73.6701 57.6125 73.6933 57.597 73.6933H57.5506C57.4849 73.6933 57.4269 73.6933 57.3689 73.7049C57.3109 73.7126 57.2606 73.7242 57.2142 73.7397C57.1524 73.7551 57.0905 73.7745 57.0364 73.7977C56.9822 73.8209 56.9281 73.8479 56.8817 73.8827C56.7387 73.9794 56.5956 74.0915 56.4487 74.2191C56.3056 74.3467 56.1626 74.4975 56.0195 74.6753C55.8765 74.8338 55.7489 75.0194 55.6368 75.2243C55.5246 75.4331 55.428 75.6458 55.3506 75.87C55.3197 75.9319 55.2927 76.0015 55.2656 76.0749C55.2424 76.1484 55.2153 76.2141 55.1805 76.2799C55.1651 76.3456 55.1496 76.4036 55.1341 76.4577C55.1187 76.5157 55.1032 76.566 55.0877 76.6124C55.0568 76.7245 55.0259 76.8482 55.0027 76.9835C54.9795 77.1189 54.9679 77.2503 54.9679 77.3779C54.9524 77.521 54.9447 77.6833 54.9447 77.8689V82.524H57.0286V82.93H51.1634V82.524H53.0076V74.076H51.1634V73.6701H53.5335C53.7075 73.701 53.866 73.7087 54.0013 73.6933C54.1366 73.6778 54.2603 73.6469 54.3725 73.5966C54.4691 73.5502 54.5658 73.4845 54.6586 73.4033C54.7552 73.3221 54.8519 73.2293 54.9447 73.1172V75.9899C55.0568 75.5916 55.2037 75.2282 55.3893 74.8996L55.3854 74.9073Z" fill="#F78E1E"/>
<path d="M60.7094 79.5842C60.7906 80.1254 60.9337 80.5971 61.1386 80.9954C61.3474 81.3936 61.6103 81.7377 61.9273 82.0238C62.2482 82.3099 62.6039 82.5264 63.006 82.6695C63.4043 82.8126 63.8527 82.886 64.3476 82.886C64.7149 82.886 65.0474 82.8396 65.3529 82.743C65.6545 82.6463 65.929 82.4955 66.1687 82.2867C66.3929 82.0779 66.5631 81.8421 66.6829 81.5792C66.8028 81.3163 66.8608 81.0147 66.8608 80.6822C66.8608 80.3806 66.8144 80.1177 66.7177 79.8935C66.6211 79.6692 66.478 79.4798 66.2885 79.3174C66.0952 79.1589 65.8555 79.039 65.5694 78.9578C65.2833 78.8766 64.9547 78.8379 64.5874 78.8379L62.9364 78.7915C62.5846 78.8225 62.2598 78.78 61.9544 78.6601C61.6528 78.5402 61.386 78.3624 61.1656 78.1227C60.9414 77.883 60.7751 77.6046 60.663 77.2837C60.5509 76.9628 60.4968 76.6148 60.4968 76.232C60.4968 75.7681 60.5741 75.3582 60.7249 74.9987C60.8757 74.6391 61.1038 74.3182 61.4054 74.0282C61.7069 73.7576 62.0549 73.5488 62.4454 73.4057C62.8359 73.2627 63.2767 73.1892 63.7716 73.1892C63.9455 73.1892 64.1157 73.2008 64.2742 73.224C64.4327 73.2472 64.5874 73.2781 64.7304 73.3091C64.8735 73.3555 65.0165 73.4019 65.1634 73.4405C65.3065 73.4792 65.4341 73.5178 65.5462 73.5488C65.6738 73.5952 65.7859 73.6454 65.8826 73.6918C65.9792 73.7382 66.0643 73.7808 66.1455 73.8117C66.2267 73.8581 66.3001 73.8929 66.3736 73.9084C66.4471 73.9238 66.5051 73.9316 66.5515 73.9316C66.5824 73.9316 66.6095 73.9238 66.6249 73.9084C66.6404 73.8929 66.6558 73.8697 66.6713 73.8349V73.7769C66.6713 73.7537 66.679 73.7266 66.6945 73.6918V73.166H67.0541L67.1507 75.9421H66.7912C66.7254 75.5593 66.6211 75.2152 66.4664 74.9136C66.3156 74.612 66.103 74.3568 65.8323 74.1481C65.5771 73.9393 65.2717 73.7846 64.9121 73.6802C64.5526 73.5758 64.1427 73.5256 63.6788 73.5256C63.3115 73.5256 62.9751 73.5642 62.6735 73.6454C62.3719 73.7266 62.1052 73.8542 61.8848 74.0282C61.6605 74.1867 61.4943 74.3839 61.3821 74.6159C61.27 74.8479 61.2159 75.0992 61.2159 75.3698C61.2159 75.625 61.27 75.8493 61.3821 76.0387C61.4943 76.2282 61.6528 76.3983 61.8616 76.5413C62.0858 76.6844 62.3487 76.7927 62.6503 76.8622C62.9519 76.9357 63.3037 76.9705 63.702 76.9705L65.2098 76.9241C65.6235 76.955 65.9908 77.0362 66.3117 77.1638C66.6326 77.2914 66.911 77.4731 67.1507 77.7128C67.375 77.968 67.5451 78.2696 67.665 78.6098C67.7848 78.9539 67.8428 79.3483 67.8428 79.7929C67.8428 80.2878 67.7539 80.7441 67.5799 81.1578C67.4021 81.5715 67.1469 81.9388 66.8144 82.2597C66.4625 82.5806 66.072 82.8126 65.6429 82.9672C65.2137 83.118 64.742 83.1953 64.2317 83.1953C64.0229 83.1953 63.8257 83.1837 63.6324 83.1605C63.439 83.1373 63.2573 83.0987 63.0833 83.0523C62.9248 83.0059 62.7702 82.9556 62.6155 82.9092C62.4647 82.8628 62.3255 82.8048 62.1979 82.743C62.1322 82.712 62.0704 82.685 62.0046 82.6579C61.9389 82.6347 61.877 82.6076 61.8113 82.5728C61.7495 82.5574 61.6915 82.5342 61.6451 82.4994C61.5987 82.4685 61.5484 82.4453 61.502 82.4298C61.4054 82.3834 61.3164 82.3409 61.2391 82.3099C61.1579 82.279 61.096 82.2635 61.0458 82.2635C60.9839 82.2635 60.9298 82.279 60.8911 82.3099C60.8525 82.3409 60.8138 82.3834 60.7829 82.4298C60.7674 82.4762 60.7519 82.5419 60.7365 82.6231C60.721 82.7043 60.7133 82.7971 60.7133 82.9092V83.0059H60.404V79.5842H60.7133H60.7094Z" fill="#F78E1E"/>
<path d="M109.603 74.7411C109.828 74.455 110.114 74.1998 110.465 73.9756C110.802 73.7513 111.158 73.5812 111.544 73.4614C111.927 73.3415 112.333 73.2797 112.762 73.2797C113.226 73.2797 113.636 73.3338 113.995 73.4343C114.355 73.5387 114.66 73.7011 114.916 73.9253C115.155 74.1341 115.349 74.397 115.503 74.7141C115.654 75.035 115.762 75.4061 115.828 75.8392C115.956 75.4564 116.134 75.1084 116.366 74.7991C116.597 74.4898 116.864 74.2192 117.17 73.9988C117.487 73.7745 117.827 73.6083 118.187 73.4962C118.546 73.384 118.925 73.326 119.323 73.326C119.66 73.326 119.969 73.3531 120.255 73.4111C120.541 73.4652 120.816 73.5503 121.071 73.6624C121.311 73.7745 121.527 73.9099 121.717 74.0684C121.91 74.2269 122.068 74.4125 122.196 74.6174C122.196 74.6329 122.2 74.6483 122.208 74.6638C122.215 74.6793 122.227 74.6947 122.242 74.7102C122.258 74.7257 122.269 74.7411 122.277 74.7566C122.285 74.7721 122.296 74.7875 122.312 74.803C122.358 74.9151 122.401 75.035 122.443 75.1626C122.482 75.2902 122.513 75.4255 122.528 75.5685C122.544 75.7116 122.556 75.8972 122.563 76.1176C122.571 76.3418 122.575 76.6124 122.575 76.9295V82.5512H124.419V82.9571H118.747V82.5512H120.615V75.5415C120.615 75.2708 120.58 75.0234 120.506 74.7991C120.433 74.5749 120.336 74.3854 120.209 74.223C120.066 74.0645 119.899 73.9447 119.706 73.8635C119.517 73.7823 119.285 73.7436 119.014 73.7436C118.662 73.7436 118.33 73.8093 118.009 73.9369C117.692 74.0645 117.386 74.2656 117.1 74.5362C116.799 74.7914 116.551 75.0582 116.358 75.3366C116.164 75.6149 116.021 75.9049 115.929 76.2103C115.913 76.2761 115.894 76.3341 115.882 76.3882C115.867 76.4462 115.859 76.4965 115.859 76.5429C115.844 76.6086 115.836 76.6666 115.836 76.7246V82.5512H117.653V82.9571H112.004V82.5512H113.895V75.1819C113.895 74.9731 113.86 74.7798 113.787 74.5942C113.713 74.4125 113.617 74.2462 113.489 74.1032C113.361 73.9601 113.207 73.8519 113.021 73.7823C112.839 73.7088 112.634 73.674 112.41 73.674C112.043 73.674 111.691 73.7436 111.359 73.8789C111.022 74.0143 110.697 74.2192 110.377 74.4898C110.075 74.745 109.816 75.0388 109.599 75.3752C109.383 75.7116 109.221 76.0789 109.108 76.4771V82.555H110.902V82.961H105.327V82.555H107.171V74.1071H105.327V73.7011H107.624C107.848 73.732 108.037 73.7397 108.2 73.7243C108.358 73.7088 108.494 73.6779 108.606 73.6276C108.718 73.5812 108.815 73.5116 108.892 73.4227C108.973 73.3338 109.043 73.2371 109.108 73.125V75.6381C109.221 75.3172 109.387 75.0156 109.611 74.7295L109.603 74.7411Z" fill="#F78E1E"/>
<path d="M132.361 73.6616C132.937 73.9168 133.47 74.2995 133.965 74.8099C134.475 75.3048 134.858 75.8383 135.113 76.4144C135.369 76.9905 135.496 77.5975 135.496 78.2355C135.496 78.9198 135.369 79.5578 135.113 80.1377C134.858 80.7215 134.475 81.2667 133.965 81.777C133.455 82.2719 132.902 82.6431 132.303 82.8906C131.703 83.138 131.054 83.2617 130.354 83.2617C129.654 83.2617 129.02 83.138 128.417 82.8906C127.81 82.6431 127.245 82.2642 126.72 81.7539C126.194 81.2435 125.799 80.6983 125.536 80.1145C125.274 79.5307 125.142 78.9121 125.142 78.2587C125.142 77.6517 125.262 77.0794 125.502 76.5343C125.741 75.993 126.109 75.4904 126.604 75.0264C127.098 74.5624 127.613 74.1874 128.146 73.9013C128.68 73.6152 129.244 73.4219 129.832 73.3252H129.929C129.96 73.3252 129.994 73.3175 130.025 73.302H130.288C130.323 73.302 130.354 73.2943 130.385 73.2788H130.555V73.2324C131.193 73.2634 131.8 73.4103 132.372 73.6616H132.361ZM133.316 76.6039C133.316 76.0935 133.265 75.645 133.161 75.2623C133.057 74.8795 132.894 74.5702 132.67 74.3305C132.461 74.0907 132.179 73.9129 131.819 73.793C131.46 73.6732 131.034 73.6113 130.54 73.6113C129.979 73.6113 129.499 73.6693 129.094 73.793C128.688 73.9129 128.355 74.0907 128.1 74.3305C127.845 74.5702 127.659 74.8795 127.535 75.2623C127.416 75.645 127.358 76.0935 127.358 76.6039V79.8825C127.358 80.4393 127.412 80.9149 127.524 81.3054C127.636 81.6959 127.81 82.0129 128.05 82.2487C128.289 82.4885 128.599 82.6663 128.981 82.7862C129.364 82.906 129.828 82.964 130.369 82.964C130.911 82.964 131.375 82.9099 131.757 82.7978C132.14 82.6856 132.434 82.5194 132.643 82.2951C132.867 82.0709 133.033 81.7655 133.145 81.375C133.258 80.9845 133.312 80.5166 133.312 79.9753V76.6L133.316 76.6039Z" fill="#F78E1E"/>
<path d="M143.036 81.4863C142.908 81.8227 142.761 82.105 142.591 82.3369C142.425 82.5689 142.243 82.7468 142.054 82.8744C141.864 82.9865 141.644 83.0754 141.396 83.1373C141.149 83.1991 140.867 83.2339 140.546 83.2339C140.147 83.2339 139.796 83.1875 139.494 83.1025C139.189 83.0135 138.93 82.8821 138.705 82.7081C138.481 82.5186 138.315 82.2905 138.203 82.0276C138.091 81.7647 138.036 81.4554 138.036 81.1074V74.1209H136.072V73.715H136.718C137.151 73.7459 137.545 73.684 137.901 73.5217C138.261 73.3631 138.574 73.1157 138.848 72.7793C139.119 72.4623 139.324 72.1143 139.459 71.7393C139.595 71.3642 139.664 70.9699 139.664 70.5562L140 70.5098V73.715H143.039V74.1209H140V81.3974C140 81.668 140.02 81.8962 140.058 82.0779C140.097 82.2596 140.159 82.4104 140.236 82.5225C140.318 82.6346 140.422 82.712 140.557 82.7622C140.693 82.8086 140.855 82.8357 141.048 82.8357C141.222 82.8357 141.389 82.8086 141.539 82.7506C141.69 82.6965 141.829 82.6114 141.957 82.4993C142.084 82.3717 142.208 82.2248 142.328 82.0547C142.448 81.8884 142.564 81.6835 142.676 81.4438V81.3974L143.036 81.4941V81.4863Z" fill="#F78E1E"/>
<path d="M144.064 74.1132V73.7072H146.314C146.538 73.7381 146.724 73.7459 146.875 73.7304C147.026 73.7149 147.149 73.684 147.246 73.6337C147.343 73.5873 147.439 73.5177 147.532 73.4288C147.629 73.3399 147.714 73.2355 147.795 73.1079V73.0847L147.818 73.0615V73.0383V82.5611H149.663V82.9671H144.037V82.5611H145.881V74.1132H144.06H144.064ZM147.296 66.8522C147.424 66.9063 147.544 66.9913 147.656 67.1035C147.768 67.2156 147.849 67.3355 147.907 67.463C147.965 67.5906 147.992 67.7259 147.992 67.869C147.992 68.0275 147.965 68.1706 147.907 68.2982C147.853 68.4258 147.768 68.5456 147.656 68.6577C147.544 68.7699 147.424 68.8511 147.296 68.9091C147.169 68.967 147.026 68.9941 146.867 68.9941C146.709 68.9941 146.562 68.967 146.434 68.9091C146.307 68.8511 146.187 68.7699 146.075 68.6577C145.962 68.5456 145.881 68.4258 145.835 68.2982C145.788 68.1706 145.761 68.0275 145.761 67.869C145.761 67.7259 145.785 67.5906 145.835 67.463C145.881 67.3355 145.962 67.2156 146.075 67.1035C146.187 66.9913 146.307 66.9102 146.434 66.8522C146.562 66.798 146.705 66.7671 146.867 66.7671V66.7207C147.026 66.7516 147.169 66.798 147.296 66.8522Z" fill="#F78E1E"/>
<path d="M157.155 73.6616C157.728 73.9168 158.261 74.2995 158.76 74.8099C159.27 75.3048 159.653 75.8383 159.908 76.4144C160.164 76.9905 160.291 77.5975 160.291 78.2355C160.291 78.9198 160.164 79.5578 159.908 80.1377C159.653 80.7215 159.27 81.2667 158.76 81.777C158.25 82.2719 157.693 82.6431 157.097 82.8906C156.498 83.138 155.849 83.2617 155.149 83.2617C154.449 83.2617 153.815 83.138 153.212 82.8906C152.605 82.6431 152.04 82.2642 151.514 81.7539C150.989 81.2435 150.594 80.6983 150.331 80.1145C150.068 79.5307 149.937 78.9121 149.937 78.2587C149.937 77.6517 150.057 77.0794 150.297 76.5343C150.536 75.993 150.904 75.4904 151.398 75.0264C151.893 74.5624 152.408 74.1874 152.941 73.9013C153.475 73.6152 154.035 73.4219 154.627 73.3252H154.724C154.754 73.3252 154.785 73.3175 154.82 73.302H155.083C155.114 73.302 155.145 73.2943 155.18 73.2788H155.346V73.2324C155.984 73.2634 156.591 73.4103 157.167 73.6616H157.155ZM158.11 76.6039C158.11 76.0935 158.056 75.645 157.956 75.2623C157.851 74.8795 157.689 74.5702 157.465 74.3305C157.256 74.0907 156.974 73.9129 156.614 73.793C156.255 73.6732 155.829 73.6113 155.334 73.6113C154.778 73.6113 154.294 73.6693 153.888 73.793C153.482 73.9129 153.15 74.0907 152.895 74.3305C152.64 74.5702 152.45 74.8795 152.33 75.2623C152.21 75.645 152.152 76.0935 152.152 76.6039V79.8825C152.152 80.4393 152.207 80.9149 152.323 81.3054C152.435 81.6959 152.609 82.0129 152.848 82.2487C153.088 82.4885 153.397 82.6663 153.784 82.7862C154.167 82.906 154.627 82.964 155.172 82.964C155.717 82.964 156.177 82.9099 156.56 82.7978C156.943 82.6856 157.237 82.5194 157.445 82.2951C157.67 82.0709 157.836 81.7655 157.948 81.375C158.06 80.9845 158.118 80.5166 158.118 79.9753V76.6L158.11 76.6039Z" fill="#F78E1E"/>
<path d="M165.255 74.6559C165.518 74.3775 165.824 74.1417 166.176 73.9484C166.512 73.7551 166.879 73.6081 167.278 73.5037C167.676 73.3994 168.097 73.3491 168.546 73.3491C169.072 73.3491 169.539 73.411 169.945 73.5424C170.351 73.67 170.684 73.8594 170.939 74.1146C171.21 74.3698 171.415 74.6946 171.55 75.0851C171.685 75.4756 171.755 75.9279 171.755 76.4383V82.5626H173.599V82.9686H167.95V82.5626H169.795V75.5993C169.795 75.2823 169.768 75 169.71 74.7603C169.655 74.5206 169.563 74.3311 169.435 74.1842C169.323 74.0412 169.164 73.9329 168.956 73.8633C168.747 73.7937 168.511 73.7551 168.236 73.7551C167.838 73.7551 167.459 73.8208 167.1 73.9484C166.74 74.076 166.396 74.2577 166.06 74.4974C165.723 74.7526 165.433 75.0387 165.186 75.3596C164.938 75.6805 164.734 76.0362 164.575 76.4383V82.5626H166.442V82.9686H160.817V82.5626H162.661V74.1146H160.817V73.7087H163.09C163.315 73.7396 163.5 73.7473 163.651 73.7319C163.802 73.7164 163.933 73.6855 164.045 73.6352C164.142 73.5888 164.239 73.5192 164.331 73.4303C164.428 73.3414 164.509 73.237 164.571 73.1094V75.5993C164.764 75.2475 164.993 74.9343 165.255 74.6559Z" fill="#F78E1E"/>
<path d="M81.0812 82.3332C81.5761 82.3835 81.9859 82.368 82.3068 82.2945C82.6277 82.2211 82.8365 82.109 82.937 81.962C83.0608 81.8151 83.1652 81.5986 83.2541 81.3125C83.3391 81.0302 83.3971 80.6861 83.4203 80.2918V80.1797C83.4203 80.1565 83.4319 80.1294 83.459 80.1062V59.2975L82.7901 58.8529H79.8594V58.2227H87.538L101.967 76.4718V61.9305C101.967 61.4627 101.959 61.0644 101.948 60.7435C101.936 60.4226 101.917 60.1752 101.894 60.0012C101.871 59.8272 101.824 59.6803 101.762 59.5565C101.7 59.4328 101.619 59.3323 101.523 59.2588C101.449 59.2086 101.349 59.1583 101.225 59.1119C101.101 59.0617 100.966 59.0269 100.819 58.9998C100.672 58.9766 100.467 58.9573 100.208 58.9457C99.949 58.9341 99.6319 58.9263 99.2608 58.9263L98.1859 58.8529V58.2227H106.124V58.8529H105.084C104.712 58.9031 104.395 58.9341 104.136 58.9457C103.877 58.9573 103.672 58.9766 103.525 58.9998C103.378 59.023 103.247 59.0694 103.135 59.1313C103.023 59.1931 102.942 59.2627 102.895 59.3362C102.872 59.3632 102.845 59.3864 102.822 59.4096V59.4444H102.783C102.71 59.5449 102.652 59.6493 102.617 59.7615C102.578 59.8736 102.563 60.0012 102.563 60.152C102.539 60.2989 102.524 60.5309 102.524 60.8363V83.149H102.3L84.0506 59.9664V78.4011C84.0506 79.4141 84.0931 80.2145 84.182 80.7944C84.2671 81.3744 84.3985 81.7533 84.5725 81.9272C84.7465 82.1012 85.1099 82.225 85.6667 82.2984C86.2234 82.3719 86.9696 82.4105 87.9092 82.4105V82.9673H79.8594V82.3371H81.0851L81.0812 82.3332Z" fill="#81BF46"/>
</g>
<defs>
<clipPath id="clip0_551_8641">
<rect width="173.595" height="83.258" fill="white"/>
</clipPath>
</defs>
</svg>
